0
SECTION
2
HEADER
9
$INSUNITS
70
4
9
$ACADVER
1
AC1014
9
$HANDSEED
5
FFFF
0
ENDSEC
0
SECTION
2
TABLES
0
TABLE
2
VPORT
5
8
100
AcDbSymbolTable
0
ENDTAB
0
TABLE
2
LTYPE
5
5
100
AcDbSymbolTable
70
2
0
LTYPE
5
14
100
AcDbSymbolTableRecord
100
AcDbLinetypeTableRecord
2
BYBLOCK
70
0
0
LTYPE
5
15
100
AcDbSymbolTableRecord
100
AcDbLinetypeTableRecord
2
BYLAYER
70
0
0
ENDTAB
0
TABLE
2
LAYER
5
2
100
AcDbSymbolTable
70
3
0
LAYER
5
50
100
AcDbSymbolTableRecord
100
AcDbLayerTableRecord
2
0
70
0
6
CONTINUOUS
0
LAYER
5
51
100
AcDbSymbolTableRecord
100
AcDbLayerTableRecord
2
CUTOUTS
70
0
62
1
6
CONTINUOUS
0
LAYER
5
52
100
AcDbSymbolTableRecord
100
AcDbLayerTableRecord
2
PERIMETER
70
0
62
5
6
CONTINUOUS
0
ENDTAB
0
TABLE
2
STYLE
5
3
100
AcDbSymbolTable
70
1
0
STYLE
5
11
100
AcDbSymbolTableRecord
100
AcDbTextStyleTableRecord
2
STANDARD
70
0
0
ENDTAB
0
TABLE
2
VIEW
5
6
100
AcDbSymbolTable
0
ENDTAB
0
TABLE
2
UCS
5
7
100
AcDbSymbolTable
0
ENDTAB
0
TABLE
2
APPID
5
9
100
AcDbSymbolTable
70
1
0
APPID
5
12
100
AcDbSymbolTableRecord
100
AcDbRegAppTableRecord
2
ACAD
70
0
0
ENDTAB
0
TABLE
2
DIMSTYLE
5
A
100
AcDbSymbolTable
0
ENDTAB
0
TABLE
2
BLOCK_RECORD
5
1
100
AcDbSymbolTable
70
2
0
BLOCK_RECORD
5
1F
100
AcDbSymbolTableRecord
100
AcDbBlockTableRecord
2
*MODEL_SPACE
0
BLOCK_RECORD
5
1B
100
AcDbSymbolTableRecord
100
AcDbBlockTableRecord
2
*PAPER_SPACE
0
ENDTAB
0
ENDSEC
0
SECTION
2
BLOCKS
0
BLOCK
5
20
100
AcDbEntity
100
AcDbBlockBegin
2
*MODEL_SPACE
0
ENDBLK
5
21
100
AcDbEntity
100
AcDbBlockEnd
0
BLOCK
5
1C
100
AcDbEntity
100
AcDbBlockBegin
2
*PAPER_SPACE
0
ENDBLK
5
1D
100
AcDbEntity
100
AcDbBlockEnd
0
ENDSEC
0
SECTION
2
ENTITIES
0
LINE
5
100
100
AcDbEntity
8
PERIMETER
100
AcDbLine
10
52.694207117403799
20
73.103500000000011
30
0
11
52.694207117403799
21
76.896500000000017
31
0
0
LINE
5
101
100
AcDbEntity
8
PERIMETER
100
AcDbLine
10
52.694207117403799
20
76.896500000000017
30
0
11
67.715707117403809
21
76.896500000000017
31
0
0
ARC
5
102
100
AcDbEntity
8
PERIMETER
100
AcDbCircle
10
67.715707117403753
20
77.500000000000057
30
0
40
0.60350000000003234
210
-0
220
0
230
1
100
AcDbArc
50
270.0000000000054
51
360
0
LINE
5
103
100
AcDbEntity
8
PERIMETER
100
AcDbLine
10
68.319207117403792
20
77.500000000000014
30
0
11
68.319207117403792
21
122.00000000000001
31
0
0
ARC
5
104
100
AcDbEntity
8
PERIMETER
100
AcDbCircle
10
65.215707117403795
20
122.00000000000001
30
0
40
3.1034999999999968
210
0
220
-0
230
1
100
AcDbArc
50
0
51
89.999999999999744
0
LINE
5
105
100
AcDbEntity
8
PERIMETER
100
AcDbLine
10
65.215707117403809
20
125.10350000000001
30
0
11
-64.836609977057975
21
125.10350000000001
31
0
0
ARC
5
106
100
AcDbEntity
8
PERIMETER
100
AcDbCircle
10
-64.836609977057961
20
122.00000000000001
30
0
40
3.1034999999999968
210
0
220
0
230
1
100
AcDbArc
50
90.000000000000526
51
201.99999999999878
0
LINE
5
107
100
AcDbEntity
8
PERIMETER
100
AcDbLine
10
-67.714125069706014
20
120.83740843733379
30
0
11
-62.972394242520416
21
109.1012128045279
31
0
0
ARC
5
108
100
AcDbEntity
8
PERIMETER
100
AcDbCircle
10
-62.412838786289406
20
109.32728788365436
30
0
40
0.60349999999994419
210
0
220
0
230
1
100
AcDbArc
50
201.99999999999784
51
292.00000000000574
0
LINE
5
109
100
AcDbEntity
8
PERIMETER
100
AcDbLine
10
-62.186763707162875
20
108.7677324274234
30
0
11
-59.037583745126881
21
110.04008372196053
31
0
0
LINE
5
10A
100
AcDbEntity
8
PERIMETER
100
AcDbLine
10
-59.037583745126881
20
110.04008372196053
30
0
11
-47.885912879031281
21
82.438729767661854
31
0
0
LINE
5
10B
100
AcDbEntity
8
PERIMETER
100
AcDbLine
10
-47.885912879031281
20
82.438729767661854
30
0
11
-51.035092841067311
21
81.166378473124738
31
0
0
ARC
5
10C
100
AcDbEntity
8
PERIMETER
100
AcDbCircle
10
-50.809017761940815
20
80.606823016893699
30
0
40
0.60349999999997395
210
0
220
0
230
1
100
AcDbArc
50
111.99999999999999
51
201.99999999999957
0
LINE
5
10D
100
AcDbEntity
8
PERIMETER
100
AcDbLine
10
-51.368573218171846
20
80.380747937767211
30
0
11
-42.378014976189966
21
58.128335428164263
31
0
0
ARC
5
10E
100
AcDbEntity
8
PERIMETER
100
AcDbCircle
10
-41.818459519958957
20
58.354410507290723
30
0
40
0.60349999999994419
210
0
220
0
230
1
100
AcDbArc
50
201.99999999999784
51
292.00000000000574
0
LINE
5
10F
100
AcDbEntity
8
PERIMETER
100
AcDbLine
10
-41.592384440832426
20
57.794855051059756
30
0
11
-38.44320447879636
21
59.067206345596887
31
0
0
LINE
5
110
100
AcDbEntity
8
PERIMETER
100
AcDbLine
10
-38.44320447879636
20
59.067206345596887
30
0
11
5.3899797529027094
21
-49.423731689655774
31
0
0
LINE
5
111
100
AcDbEntity
8
PERIMETER
100
AcDbLine
10
5.3899797529027094
20
-49.423731689655774
30
0
11
2.2407997908665944
21
-50.696082984192891
31
0
0
ARC
5
112
100
AcDbEntity
8
PERIMETER
100
AcDbCircle
10
2.4668748699931076
20
-51.255638440423958
30
0
40
0.60350000000001358
210
0
220
0
230
1
100
AcDbArc
50
112.00000000000053
51
201.99999999999432
0
LINE
5
113
100
AcDbEntity
8
PERIMETER
100
AcDbLine
10
1.9073194137620142
20
-51.481713519550411
30
0
11
10.897877655743944
21
-73.734126029153316
31
0
0
ARC
5
114
100
AcDbEntity
8
PERIMETER
100
AcDbCircle
10
11.457433111974975
20
-73.508050950026856
30
0
40
0.60349999999996407
210
0
220
0
230
1
100
AcDbArc
50
201.99999999999707
51
292.00000000000045
0
LINE
5
115
100
AcDbEntity
8
PERIMETER
100
AcDbLine
10
11.68350819110147
20
-74.06760640625788
30
0
11
14.832688153137594
21
-72.795255111720735
31
0
0
LINE
5
116
100
AcDbEntity
8
PERIMETER
100
AcDbLine
10
14.832688153137594
20
-72.795255111720735
30
0
11
25.98435901923316
21
-100.39660906601935
31
0
0
LINE
5
117
100
AcDbEntity
8
PERIMETER
100
AcDbLine
10
25.98435901923316
20
-100.39660906601935
30
0
11
22.801894654347763
21
-101.68240813221891
31
0
0
ARC
5
118
100
AcDbEntity
8
PERIMETER
100
AcDbCircle
10
23.027969733474272
20
-102.24196358844993
30
0
40
0.60349999999999704
210
0
220
0
230
1
100
AcDbArc
50
112.00000000000072
51
193.78678929826035
0
ARC
5
119
100
AcDbEntity
8
PERIMETER
100
AcDbCircle
10
19.628807348631838
20
-103.07604696645984
30
0
40
2.8965000000000112
210
-0
220
0
230
1
100
AcDbArc
50
-67.999999999999901
51
13.78678929826183
0
LINE
5
11A
100
AcDbEntity
8
PERIMETER
100
AcDbLine
10
20.713855346461038
20
-105.76163500121255
30
0
11
14.665778431302998
21
-108.2052166908046
31
0
0
ARC
5
11B
100
AcDbEntity
8
PERIMETER
100
AcDbCircle
10
15.828369993969282
20
-111.08273178345263
30
0
40
3.1034999999999875
210
0
220
0
230
1
100
AcDbArc
50
112.00000000000013
51
201.99999999999997
0
LINE
5
11C
100
AcDbEntity
8
PERIMETER
100
AcDbLine
10
12.950854901321263
20
-112.24532334611892
30
0
11
17.361717575283073
21
-123.16259156266631
31
0
0
ARC
5
11D
100
AcDbEntity
8
PERIMETER
100
AcDbCircle
10
20.239232667931084
20
-122
30
0
40
3.1034999999999906
210
0
220
0
230
1
100
AcDbArc
50
202
51
269.99999999999983
0
LINE
5
11E
100
AcDbEntity
8
PERIMETER
100
AcDbLine
10
20.239232667931077
20
-125.1035
30
0
11
65.215707117403809
21
-125.10349999999997
31
0
0
ARC
5
11F
100
AcDbEntity
8
PERIMETER
100
AcDbCircle
10
65.215707117403809
20
-122
30
0
40
3.1034999999999968
210
-0
220
0
230
1
100
AcDbArc
50
-90
51
0
0
LINE
5
120
100
AcDbEntity
8
PERIMETER
100
AcDbLine
10
68.319207117403792
20
-121.99999999999997
30
0
11
68.319207117403792
21
-77.499999999999972
31
0
0
ARC
5
121
100
AcDbEntity
8
PERIMETER
100
AcDbCircle
10
67.715707117403809
20
-77.499999999999972
30
0
40
0.60349999999998793
210
0
220
-0
230
1
100
AcDbArc
50
0
51
90
0
LINE
5
122
100
AcDbEntity
8
PERIMETER
100
AcDbLine
10
67.715707117403809
20
-76.896499999999989
30
0
11
52.694207117403799
21
-76.896499999999989
31
0
0
LINE
5
123
100
AcDbEntity
8
PERIMETER
100
AcDbLine
10
52.694207117403799
20
-76.896499999999989
30
0
11
52.694207117403799
21
-73.103499999999983
31
0
0
LINE
5
124
100
AcDbEntity
8
PERIMETER
100
AcDbLine
10
52.694207117403799
20
-73.103499999999983
30
0
11
67.715707117403809
21
-73.103499999999983
31
0
0
ARC
5
125
100
AcDbEntity
8
PERIMETER
100
AcDbCircle
10
67.715707117403809
20
-72.499999999999986
30
0
40
0.60349999999999682
210
-0
220
0
230
1
100
AcDbArc
50
-90
51
0
0
LINE
5
126
100
AcDbEntity
8
PERIMETER
100
AcDbLine
10
68.319207117403806
20
-72.499999999999986
30
0
11
68.319207117403792
21
72.500000000000014
31
0
0
ARC
5
127
100
AcDbEntity
8
PERIMETER
100
AcDbCircle
10
67.715707117403753
20
72.499999999999986
30
0
40
0.60350000000003234
210
0
220
-0
230
1
100
AcDbArc
50
0
51
89.99999999999325
0
LINE
5
128
100
AcDbEntity
8
PERIMETER
100
AcDbLine
10
67.715707117403824
20
73.103500000000011
30
0
11
52.694207117403792
21
73.103500000000011
31
0
0
ENDSEC
0
SECTION
2
OBJECTS
0
DICTIONARY
5
C
100
AcDbDictionary
3
ACAD_GROUP
350
D
3
ACAD_MLINESTYLE
350
17
0
DICTIONARY
5
D
100
AcDbDictionary
0
DICTIONARY
5
1A
330
C
100
AcDbDictionary
0
DICTIONARY
5
17
100
AcDbDictionary
0
ENDSEC
0
EOF
